<svg xmlns="http://www.w3.org/2000/svg" id="Layer_1" viewBox="0 0 50 50"><g><g><g><g><g><path d="m33.3405571 38.9964523 8.8389053-3.4024467c2.225914-.7368736 4.0906639-.4746552 5.5698738.8541603.8072777.7252007.6078415 2.0453606-.3791466 2.4964409-3.4964371 1.5979538-11.4948158 5.2533798-16.7534142 7.6566696-3.2151432 1.4693871-6.8522282 1.6984673-10.2279091.6491776l-11.2055052-3.4831009v-12.7140923l8.7832336-.0000019c.6462898 0 1.2926598.0626431 1.9211407.2133198 1.6411972.3934708 3.0623531 1.2779274 4.2361717 2.7142601.4326553.5294113 1.0891457.8227196 1.7728615.8227234 1.359848.0000076 3.6470737.0000114 5.4298458.0000153 1.4257202.0000038 2.5785904 1.155777 2.5785904 2.581501v.0000038c0 1.4257202-1.1557732 2.5814972-2.5814953 2.5814972h-12.6215973" fill="#fff"></path><path d="m6.1662598 47.3752365h-3.4105692c-.555433 0-1.0057006-.4502678-1.0057006-1.0056992v-17.3532657c0-.5554333.4502676-1.0057011 1.0057006-1.0057011h3.4105692c1.6662989 0 3.0171013 1.3508015 3.0171013 3.0171013v13.3304634c0 1.6662979-1.3508025 3.0171013-3.0171013 3.0171013z" fill="#f99"></path></g><path d="m19.0973091 21.8128128v-14.0407853c0-1.4355283 1.1637249-2.5992541 2.5992546-2.5992541h14.040226c1.4355278 0 2.5992546 1.1637259 2.5992546 2.5992541v14.0407848c0 1.4355278-1.1637268 2.5992527-2.5992546 2.5992527h-14.040226c-1.4355297.0000005-2.5992546-1.1637244-2.5992546-2.5992522z" fill="#9cf"></path></g></g></g><g fill="#024"><path d="m2.7555032 48.1250725h3.4106445c1.9350581 0 3.5155025-1.472229 3.7250972-3.3522949l10.2749023 3.1940918c3.4780273 1.0811157 7.3046875.8970947 10.7626953-.6835938l16.7529316-7.6567383c1.4776611-.675354 1.777832-2.6505127.5688477-3.7358398-1.6713867-1.5014648-3.7929688-1.8413086-6.3408203-.996582l-7.2685547 2.7978516c.0092773-.1010742.0141602-.2036133.0141602-.3071289 0-1.8369141-1.4931641-3.3310547-3.3286152-3.3310547h-5.4301758c-.4731445 0-.9077148-.199707-1.1918945-.5473633-1.2509766-1.5312519-2.8129883-2.5302753-4.6416016-2.9692402-.6469727-.1552734-1.3525391-.2338867-2.0966797-.2338867h-8.1064453c-.3391113-1.7311401-1.8647456-3.0424805-3.6938472-3.0424805h-3.4106445c-.9677736 0-1.7553712.7875977-1.7553712 1.7553711v17.3535175c0 .9677734.7875976 1.7553711 1.7553712 1.7553711zm7.1777339-16.3217793h8.0332031c.6264648 0 1.2138672.0649414 1.746582.1928711 1.5239258.3652363 2.7763672 1.1699238 3.8300781 2.4599628.5708008.6977539 1.4287109 1.0976562 2.3535156 1.0976562h5.4301758c1.0083027 0 1.8286152.8217773 1.8286152 1.831543s-.8217773 1.8310547-1.8315449 1.8310547h-12.621582c-.4140625 0-.75.3359375-.75.75s.3359375.75.75.75h12.621582c.9731464 0 1.8500996-.4194336 2.4594746-1.0864258l8.6318359-3.3242188c1.9931641-.6601562 3.5742188-.4301758 4.8330078.7006836.4056396.3637085.3076172 1.0291748-.1899414 1.2558594l-16.7534199 7.6567383c-3.0458984 1.3930664-6.4887695 1.6108398-9.6933594.6152344l-10.6782225-3.3193359zm-7.433105-2.7871093c0-.140625.1147461-.2553711.2553711-.2553711h3.4106445c1.25 0 2.2670894 1.0170898 2.2670894 2.2670898v.0253906 13.3046894c0 1.25-1.0170894 2.2670898-2.2670894 2.2670898h-3.4106445c-.140625 0-.2553711-.1147461-.2553711-.2553711z"></path><path d="m24.5904636 18.842844c.1108398-.0722656.1953125-.1713867.2548828-.2998047l.6977539-1.675293h3.6508789l.7001953 1.6806641c.2138672.4604492.7965088.5241089 1.1000977.2109375.1810303-.1890259.2398682-.4512329.1147461-.7514648l-2.8896484-6.8222656c-.1467285-.3279419-.4174805-.5532227-.7939453-.5532227h-.1137696c-.3775635 0-.6481934.2272339-.7949219.5556641l-2.8886719 6.8203125c-.0458984.1088867-.0683594.2021484-.0683594.2841797 0 .1835938.0615234.340332.1831055.4667969.2089845.2177734.5742188.2612304.8476563.083496zm2.7778321-6.3554687 1.3046875 3.140625h-2.6088867z"></path><path d="m33.202282 18.952219c.3718262 0 .6713867-.2871094.6713867-.659668v-6.9892578c0-.1835938-.0664062-.3432617-.1967773-.4741211-.2607422-.2612305-.6923828-.2612305-.9448242.0019531-.1259766.1308594-.1894531.2895508-.1894531.472168v6.9892578c-.0000001.3705445.2868651.659668.6596679.659668z"></path><path d="m16.0245457 19.4824924c-.4140625 0-.75.3359375-.75.75s.3359375.75.75.75h2.3227539v.8300781c0 1.847168 1.5024414 3.3496094 3.3491211 3.3496094h.8300781v2.3227539c0 .4140625.3359375.75.75.75s.75-.3359375.75-.75v-2.3227539h3.9399414v2.3227539c0 .4140625.3359375.75.75.75s.75-.3359375.75-.75v-2.3227539h3.9404316v2.3227539c0 .4140625.3359375.75.75.75s.75-.3359375.75-.75v-2.3227539h.8300781c1.8466797 0 3.3491211-1.5024414 3.3491211-3.3496094v-.8300781h2.3227539c.4140625 0 .75-.3359375.75-.75s-.3359375-.75-.75-.75h-2.3227539v-3.9399414h2.3227539c.4140625 0 .75-.3359375.75-.75s-.3359375-.75-.75-.75h-2.3227539v-3.9399414h2.3227539c.4140625 0 .75-.3359375.75-.75s-.3359375-.75-.75-.75h-2.3227539v-.8305659c0-1.8466797-1.5024414-3.3491211-3.3491211-3.3491211h-.8300781v-2.3227541c0-.4140624-.3359375-.7499999-.75-.7499999s-.75.3359375-.75.7499999v2.3227541h-3.9404316v-2.3227541c0-.4140624-.3359375-.7499999-.75-.7499999s-.75.3359375-.75.7499999v2.3227541h-3.9399414v-2.3227541c0-.4140624-.3359375-.7499999-.75-.7499999s-.75.3359375-.75.7499999v2.3227541h-.8300781c-1.8466797 0-3.3491211 1.5024414-3.3491211 3.3491211v.8305659h-2.3227539c-.4140625 0-.75.3359375-.75.75s.3359375.75.75.75h2.3227539v3.9399414h-2.3227539c-.4140625 0-.75.3359375-.75.75s.3359375.75.75.75h2.3227539v3.9399414zm3.8227539-11.7104487c0-1.0195312.8295898-1.8491211 1.8491211-1.8491211h14.0405293c1.0195312 0 1.8491211.8295898 1.8491211 1.8491211v14.0405273c0 1.0200195-.8295898 1.8496094-1.8491211 1.8496094h-14.0405293c-1.0195312 0-1.8491211-.8295898-1.8491211-1.8496094z"></path></g></g></svg>