<svg xmlns="http://www.w3.org/2000/svg" width="277" height="283" viewBox="0 0 277 283" fill="none"><path fill-rule="evenodd" clip-rule="evenodd" d="M20.1489 17.2061H210.567C219.82 17.2061 227.396 24.7686 227.396 34.0346V208.502C227.396 217.755 219.82 225.33 210.567 225.33H20.1489C10.8955 225.33 3.32031 217.755 3.32031 208.502V34.0346C3.32031 24.7686 10.8955 17.2061 20.1489 17.2061Z" fill="#E8F0FE"></path><path fill-rule="evenodd" clip-rule="evenodd" d="M20.1489 17.2061H210.567C219.82 17.2061 227.396 24.7686 227.396 34.0346V57.0577H3.32031V34.0346C3.32031 24.7686 10.8955 17.2061 20.1489 17.2061Z" fill="#05E39C"></path><path fill-rule="evenodd" clip-rule="evenodd" d="M26.6406 79.2036H62.0659V114.629H26.6406V79.2036Z" fill="#FE646F"></path><path fill-rule="evenodd" clip-rule="evenodd" d="M97.6484 79.2036H133.074V114.629H97.6484V79.2036Z" fill="#407093"></path><path fill-rule="evenodd" clip-rule="evenodd" d="M168.641 79.2036H204.066V114.629H168.641V79.2036Z" fill="#407093"></path><path fill-rule="evenodd" clip-rule="evenodd" d="M26.6406 148.337H62.0659V183.763H26.6406V148.337Z" fill="#407093"></path><path fill-rule="evenodd" clip-rule="evenodd" d="M97.6484 148.337H133.074V183.763H97.6484V148.337Z" fill="#407093"></path><path fill-rule="evenodd" clip-rule="evenodd" d="M57.7135 9.73421V29.9438C57.7135 33.5571 54.7713 36.4998 51.1575 36.4998C47.557 36.4998 44.6016 33.5576 44.6016 29.9438V9.73421C44.6016 6.13369 47.557 3.17822 51.1575 3.17822C54.7708 3.17822 57.7135 6.13369 57.7135 9.73421ZM179.539 3.17822C175.939 3.17822 172.984 6.13369 172.984 9.73421V29.9438C172.984 33.5571 175.939 36.4998 179.539 36.4998C183.153 36.4998 186.095 33.5576 186.095 29.9438V9.73421C186.095 6.13369 183.153 3.17822 179.539 3.17822Z" fill="#407093"></path><path fill-rule="evenodd" clip-rule="evenodd" d="M209.224 254.122C230.569 254.122 247.978 236.713 247.978 215.367C247.978 194.022 230.569 176.612 209.224 176.612C187.879 176.612 170.469 194.022 170.469 215.367C170.469 236.713 187.878 254.122 209.224 254.122Z" fill="#05E39C"></path><path fill-rule="evenodd" clip-rule="evenodd" d="M50.4609 79.2036H62.0628V114.629H50.4609V79.2036Z" fill="#EB4C56"></path><path fill-rule="evenodd" clip-rule="evenodd" d="M121.469 79.2036H133.071V114.629H121.469V79.2036Z" fill="#365E7D"></path><path fill-rule="evenodd" clip-rule="evenodd" d="M192.461 79.2036H204.063V114.629H192.461V79.2036Z" fill="#365E7D"></path><path fill-rule="evenodd" clip-rule="evenodd" d="M50.4609 148.337H62.0628V183.763H50.4609V148.337Z" fill="#365E7D"></path><path fill-rule="evenodd" clip-rule="evenodd" d="M121.469 148.337H133.071V183.763H121.469V148.337Z" fill="#365E7D"></path><path fill-rule="evenodd" clip-rule="evenodd" d="M209.224 176.613C230.621 176.613 247.978 193.97 247.978 215.368C247.978 236.765 230.621 254.123 209.224 254.123C207.546 254.123 205.894 254.007 204.281 253.813C223.356 251.387 238.093 235.1 238.093 215.368C238.093 195.636 223.355 179.349 204.281 176.923C205.894 176.729 207.546 176.613 209.224 176.613Z" fill="#0ED290"></path><path fill-rule="evenodd" clip-rule="evenodd" d="M3.32031 57.0576H227.383V64.4007H3.32031V57.0576Z" fill="#CCE4FF"></path><path d="M211.07 259.48C187.774 259.48 168.82 240.527 168.82 217.231C168.82 193.935 187.774 174.981 211.07 174.981C234.366 174.981 253.319 193.935 253.319 217.231C253.319 240.527 234.366 259.48 211.07 259.48ZM211.07 181.404C191.314 181.404 175.242 197.476 175.242 217.231C175.242 236.986 191.314 253.058 211.07 253.058C230.825 253.058 246.897 236.986 246.897 217.231C246.897 197.476 230.825 181.404 211.07 181.404Z" fill="black"></path><path d="M219.035 229.126C218.166 229.126 217.301 228.775 216.668 228.086L208.699 219.402C208.162 218.816 207.86 218.052 207.854 217.257L207.672 194.767C207.658 192.993 209.084 191.545 210.857 191.53C210.866 191.53 210.875 191.53 210.883 191.53C212.645 191.53 214.079 192.95 214.094 194.715L214.266 215.969L221.4 223.743C222.599 225.05 222.511 227.081 221.205 228.28C220.588 228.846 219.811 229.126 219.035 229.126Z" fill="black"></path><path d="M211.072 151.737C194.367 151.737 178.642 157.94 166.49 169.251L162.094 164.318C161.23 163.348 159.867 162.993 158.641 163.421C157.414 163.848 156.566 164.971 156.491 166.268L155.502 183.297C155.453 184.148 155.744 184.983 156.311 185.619C156.877 186.256 157.674 186.64 158.524 186.689L175.554 187.664C175.616 187.668 175.677 187.669 175.739 187.669C176.965 187.669 178.091 186.969 178.629 185.855C179.194 184.686 178.999 183.292 178.135 182.323L170.762 174.048C181.736 163.787 195.96 158.16 211.071 158.16C243.643 158.16 270.142 184.659 270.142 217.231C270.142 249.803 243.643 276.302 211.071 276.302C178.499 276.302 152 249.803 152 217.231C152 215.458 150.562 214.02 148.789 214.02C147.016 214.02 145.578 215.458 145.578 217.231C145.578 253.344 174.958 282.724 211.071 282.724C247.184 282.724 276.564 253.344 276.564 217.231C276.565 181.118 247.185 151.737 211.072 151.737Z" fill="#FE646F"></path><path d="M212.421 14.4071H190.984V10.0913C190.984 4.67951 186.581 0.275879 181.169 0.275879C175.757 0.275879 171.354 4.67896 171.354 10.0913V14.4071H61.6618V10.0913C61.6618 4.67951 57.2587 0.275879 51.8468 0.275879C46.435 0.275879 42.0319 4.67896 42.0319 10.0913V14.4071H20.608C9.49026 14.4071 0.445312 23.4526 0.445312 34.5703V210.315C0.445312 221.433 9.49026 230.478 20.608 230.478H134.447C136.221 230.478 137.658 229.04 137.658 227.267C137.658 225.494 136.221 224.056 134.447 224.056H20.608C13.0311 224.056 6.86698 217.892 6.86698 210.315V60.9733H226.162V142.365C226.162 144.139 227.599 145.576 229.372 145.576C231.146 145.576 232.583 144.139 232.583 142.365V34.5703C232.583 23.4526 223.538 14.4071 212.421 14.4071ZM177.776 10.0919C177.776 8.25239 179.329 6.69921 181.168 6.69921C183.039 6.69921 184.561 8.22088 184.561 10.0919V30.4491C184.561 32.3201 183.039 33.8423 181.168 33.8423C179.298 33.8423 177.776 32.3207 177.776 30.4491V10.0919ZM48.4536 10.0919C48.4536 8.25239 50.0073 6.69921 51.8463 6.69921C53.7173 6.69921 55.2395 8.22088 55.2395 10.0919V30.4491C55.2395 32.3201 53.7173 33.8423 51.8463 33.8423C49.9753 33.8423 48.4536 32.3207 48.4536 30.4491V10.0919ZM6.86698 54.5505V34.5703C6.86698 26.9934 13.0311 20.8299 20.608 20.8299H42.0314V30.4491C42.0314 35.8609 46.4345 40.2646 51.8463 40.2646C57.2587 40.2646 61.6612 35.8615 61.6612 30.4491V20.8293H171.354V30.4485C171.354 35.8604 175.757 40.264 181.168 40.264C186.58 40.264 190.983 35.8609 190.983 30.4485V20.8293H212.42C219.997 20.8293 226.161 26.9928 226.161 34.5697V54.5505H6.86698ZM66.0422 80.0697C66.0422 78.2965 64.6045 76.8583 62.8313 76.8583H27.1468C25.3736 76.8583 23.936 78.296 23.936 80.0697V115.754C23.936 117.527 25.3736 118.966 27.1468 118.966H62.8313C64.6045 118.966 66.0422 117.528 66.0422 115.754V80.0697ZM59.6205 112.543H30.3576V83.2811H59.6205V112.543ZM137.567 80.0697C137.567 78.2965 136.129 76.8583 134.356 76.8583H98.6717C96.8986 76.8583 95.4609 78.296 95.4609 80.0697V115.754C95.4609 117.527 96.8986 118.966 98.6717 118.966H134.356C136.129 118.966 137.567 117.528 137.567 115.754V80.0697ZM131.145 112.543H101.883V83.2811H131.145V112.543ZM205.868 76.8583H170.184C168.411 76.8583 166.973 78.296 166.973 80.0697V115.754C166.973 117.527 168.411 118.966 170.184 118.966H205.868C207.642 118.966 209.079 117.528 209.079 115.754V80.0697C209.079 78.296 207.642 76.8583 205.868 76.8583ZM202.658 112.543H173.395V83.2811H202.658V112.543ZM62.8313 146.498H27.1468C25.3736 146.498 23.936 147.936 23.936 149.709V185.394C23.936 187.168 25.3736 188.605 27.1468 188.605H62.8313C64.6045 188.605 66.0422 187.168 66.0422 185.394V149.709C66.0422 147.936 64.6045 146.498 62.8313 146.498ZM59.6205 182.183H30.3576V152.921H59.6205V182.183ZM134.356 146.498H98.6717C96.8986 146.498 95.4609 147.936 95.4609 149.709V185.394C95.4609 187.168 96.8986 188.605 98.6717 188.605H134.356C136.129 188.605 137.567 187.168 137.567 185.394V149.709C137.567 147.936 136.129 146.498 134.356 146.498ZM131.145 182.183H101.883V152.921H131.145V182.183Z" fill="black"></path></svg>