<svg xmlns="http://www.w3.org/2000/svg" xmlns:xlink="http://www.w3.org/1999/xlink" xmlns:svgjs="http://svgjs.dev/svgjs" id="Layer_1" height="300" viewBox="0 0 512 512" width="300"><g width="100%" height="100%" transform="matrix(1,0,0,1,0,0)"><g><path d="m481.8 44.3c0-7.8-6.3-14.1-14.1-14.1h-423.4c-7.8 0-14.1 6.3-14.1 14.1v67.2h451.6z" fill="#ffc10d" fill-opacity="1" data-original-color="#ffc10dff" stroke="none" stroke-opacity="1"></path><path d="m30.2 467.7c0 7.8 6.3 14.1 14.1 14.1h423.3c7.8 0 14.1-6.3 14.1-14.1v-328h-451.5z" fill="#ffffff" fill-opacity="1" data-original-color="#ffffffff" stroke="none" stroke-opacity="1"></path><g fill="#194f82"><path d="m467.7 2h-423.4c-23.3 0-42.3 19-42.3 42.3v423.3c0 23.4 19 42.4 42.3 42.4h423.3c23.3 0 42.3-19 42.3-42.3v-423.4c.1-23.3-18.9-42.3-42.2-42.3zm14.1 465.7c0 7.8-6.3 14.1-14.1 14.1h-423.4c-7.8 0-14.1-6.3-14.1-14.1v-328h451.6zm-451.6-423.4c0-7.8 6.3-14.1 14.1-14.1h423.3c7.8 0 14.1 6.3 14.1 14.1v67.2h-451.5z" fill="#3c4145" fill-opacity="1" data-original-color="#194f82ff" stroke="none" stroke-opacity="1"></path><path d="m444.7 56.2h-27.1c-7.8 0-14.1 6.3-14.1 14.1s6.3 14.1 14.1 14.1h27.1c7.8 0 14.1-6.3 14.1-14.1s-6.3-14.1-14.1-14.1z" fill="#3c4145" fill-opacity="1" data-original-color="#194f82ff" stroke="none" stroke-opacity="1"></path><path d="m345.8 56.2h-27.1c-7.8 0-14.1 6.3-14.1 14.1s6.3 14.1 14.1 14.1h27.1c7.8 0 14.1-6.3 14.1-14.1s-6.3-14.1-14.1-14.1z" fill="#3c4145" fill-opacity="1" data-original-color="#194f82ff" stroke="none" stroke-opacity="1"></path></g><path d="m58.4 168v18.4h55.9c7.8 0 14.1 6.3 14.1 14.1s-6.3 14.1-14.1 14.1h-55.9v38.3h22.6c7.8 0 14.1 6.3 14.1 14.1s-6.3 14.1-14.1 14.1h-22.6v172.5h395.1v-285.6z" fill="#56ace0" fill-opacity="1" data-original-color="#56ace0ff" stroke="none" stroke-opacity="1"></path><g fill="#194f82"><path d="m174.3 396.5c8.5 7.7 17.2 2.8 20 0 5.5-5.5 5.5-14.4 0-20l-45.1-45.1 45.1-45.1c5.5-5.5 5.5-14.4 0-20-5.5-5.5-14.4-5.5-20 0l-55.1 55.1c-2.6 2.6-4.1 6.2-4.1 10 0 3.7 1.5 7.3 4.1 10z" fill="#3c4145" fill-opacity="1" data-original-color="#194f82ff" stroke="none" stroke-opacity="1"></path><path d="m317.7 396.5c2.8 2.8 11.4 7.9 20 0l55.1-55.1c2.6-2.6 4.1-6.2 4.1-10 0-3.7-1.5-7.3-4.1-10l-55.1-55.1c-5.5-5.5-14.4-5.5-20 0-5.5 5.5-5.5 14.4 0 20l45.1 45.1-45.1 45.1c-5.5 5.5-5.5 14.4 0 20z" fill="#3c4145" fill-opacity="1" data-original-color="#194f82ff" stroke="none" stroke-opacity="1"></path><path d="m221.9 433.2c8.6 3.1 15.9-2.9 17.9-8.8l60.5-175.9c2.5-7.4-1.4-15.4-8.8-17.9s-15.4 1.4-17.9 8.8l-60.5 175.9c-2.5 7.4 1.5 15.3 8.8 17.9z" fill="#3c4145" fill-opacity="1" data-original-color="#194f82ff" stroke="none" stroke-opacity="1"></path></g></g></g></svg>