<svg xmlns="http://www.w3.org/2000/svg" width="227" height="227" viewBox="0 0 227 227" fill="none"><path d="M221.963 13.5895V213.365C221.963 218.11 218.122 221.951 213.377 221.951H13.5877C8.88795 221.951 5.04688 218.11 5.04688 213.365V13.5895C5.04688 8.88942 8.888 5.04834 13.5877 5.04834H213.377C218.122 5.04829 221.963 8.88942 221.963 13.5895Z" fill="white"></path><g opacity="0.05"><path d="M221.971 13.5773V213.365C221.971 218.11 218.13 221.951 213.384 221.951H13.5958C8.89576 221.951 5.05469 218.11 5.05469 213.365V196.192H105.559C155.631 196.192 196.212 155.611 196.212 105.585V5.03613H213.384C218.13 5.03613 221.971 8.87721 221.971 13.5773Z" fill="black"></path></g><path d="M221.963 44.9668V13.5895C221.963 8.88942 218.122 5.04834 213.377 5.04834H13.5877C8.88795 5.04834 5.04688 8.88946 5.04688 13.5895V44.9668H221.963Z" fill="#3E5075"></path><g opacity="0.07"><path d="M221.971 13.5695V44.9772H5.05469V33.8149H186.948C200.144 33.8149 210.809 23.1499 210.809 9.95424V5.02832H213.385C218.13 5.02832 221.971 8.86944 221.971 13.5695Z" fill="black"></path></g><path d="M31.1196 24.9924C31.1196 28.2511 28.4764 30.8945 25.2537 30.8945C21.9948 30.8945 19.3516 28.2511 19.3516 24.9924C19.3516 21.7697 21.9948 19.1265 25.2537 19.1265C28.4764 19.1265 31.1196 21.7697 31.1196 24.9924Z" fill="white"></path><path d="M48.604 24.9924C48.604 28.2511 45.9608 30.8945 42.7381 30.8945C39.4791 30.8945 36.8359 28.2511 36.8359 24.9924C36.8359 21.7697 39.4791 19.1265 42.7381 19.1265C45.9608 19.1265 48.604 21.7697 48.604 24.9924Z" fill="white"></path><path d="M66.0806 24.9924C66.0806 28.2511 63.4374 30.8945 60.2147 30.8945C56.9557 30.8945 54.3125 28.2511 54.3125 24.9924C54.3125 21.7697 56.9557 19.1265 60.2147 19.1265C63.4374 19.1265 66.0806 21.7697 66.0806 24.9924Z" fill="white"></path><g opacity="0.07"><path d="M31.1282 25.0025C31.1282 28.2564 28.4618 30.8776 25.2531 30.8776C23.084 30.8776 21.1409 29.7026 20.1016 27.9401C20.9602 28.4371 21.9543 28.7083 23.0388 28.7083C26.2927 28.7083 28.9136 26.0421 28.9136 22.7883C28.9136 21.749 28.6424 20.7546 28.1454 19.896C29.9079 20.8903 31.1282 22.7883 31.1282 25.0025Z" fill="black"></path></g><g opacity="0.07"><path d="M48.6204 25.0025C48.6204 28.2564 45.954 30.8776 42.7453 30.8776C40.5762 30.8776 38.6331 29.7026 37.5938 27.9401C38.4524 28.4371 39.4465 28.7083 40.531 28.7083C43.7396 28.7083 46.4058 26.0421 46.4058 22.7883C46.4058 21.749 46.1346 20.7546 45.6376 19.896C47.4001 20.8903 48.6204 22.7883 48.6204 25.0025Z" fill="black"></path></g><g opacity="0.07"><path d="M66.1047 25.0025C66.1047 28.2564 63.4383 30.8776 60.2297 30.8776C58.0606 30.8776 56.1175 29.7026 55.0781 27.9401C55.9368 28.4371 56.9308 28.7083 58.0154 28.7083C61.224 28.7083 63.8904 26.0421 63.8904 22.7883C63.8904 21.749 63.619 20.7546 63.1219 19.896C64.8845 20.8903 66.1047 22.7883 66.1047 25.0025Z" fill="black"></path></g><path d="M207.655 21.0398V29.0057C207.655 30.056 206.786 30.8887 205.736 30.8887H89.5783C88.5281 30.8887 87.6953 30.056 87.6953 29.0057V21.0398C87.6953 19.9896 88.5281 19.1206 89.5783 19.1206H205.736C206.786 19.1207 207.655 19.9896 207.655 21.0398Z" fill="white"></path><g opacity="0.07"><path d="M207.64 21.0259V29.0247C207.64 30.064 206.781 30.8777 205.742 30.8777H89.5561C88.5165 30.8777 87.7031 30.064 87.7031 29.0247V27.2173H194.128C198.963 27.2173 202.985 23.7375 203.844 19.1279H205.742C206.781 19.1279 207.64 19.9865 207.64 21.0259Z" fill="black"></path></g><path d="M149.633 139.273L113.48 155.336L77.3516 139.273L113.48 123.199L149.633 139.273Z" fill="#FF5975"></path><g opacity="0.07"><path d="M149.617 139.269L113.462 155.342L102.938 150.668L139.123 134.595L149.617 139.269Z" fill="black"></path></g><path d="M149.633 70.42V106.304C149.633 108.469 147.878 110.224 145.713 110.224H81.2718C79.1067 110.224 77.3516 108.469 77.3516 106.304V66.4999C77.3516 66.4804 77.3675 66.4999 77.387 66.4999H145.713C147.878 66.4999 149.633 68.255 149.633 70.42Z" fill="#F6C560"></path><g opacity="0.07"><path d="M149.633 70.4203V106.304C149.633 108.476 147.884 110.224 145.713 110.224H81.2718C79.1006 110.224 77.3516 108.476 77.3516 106.304V98.7959H120.955C130.484 98.7959 138.234 91.0763 138.234 81.5172V66.5H145.713C147.884 66.5 149.633 68.2491 149.633 70.4203Z" fill="#F6C560"></path></g><path d="M149.632 70.4085V106.293C149.632 108.464 147.884 110.213 145.713 110.213H81.2715C79.1004 110.213 77.3516 108.464 77.3516 106.293C77.3516 106.293 77.3516 80.4199 77.3817 70.4085C77.3817 68.2373 79.1306 66.4883 81.3016 66.4883H145.713C147.884 66.4883 149.632 68.2675 149.632 70.4085Z" fill="#F6C560"></path><g opacity="0.07"><path d="M149.632 70.4085V106.293C149.632 108.464 147.884 110.213 145.713 110.213H81.2715C79.1004 110.213 77.3516 108.464 77.3516 106.293V98.7841H120.956C130.484 98.7841 138.234 91.0645 138.234 81.5055V66.4883H145.713C147.884 66.4883 149.632 68.2373 149.632 70.4085Z" fill="black"></path></g><path d="M77.3516 168.31H149.632V200.446H77.3516V168.31Z" fill="#2FCBFF"></path><g opacity="0.07"><path d="M149.625 168.308V200.453H77.3438V191.919H132.225C137.141 191.919 141.121 187.939 141.121 183.024V168.308H149.625Z" fill="black"></path></g><path d="M213.373 0.529297H13.5869C6.38434 0.529297 0.523438 6.38798 0.523438 13.5905V213.366C0.523438 220.592 6.38434 226.471 13.5869 226.471H213.373C220.602 226.471 226.481 220.592 226.481 213.366C226.481 171.722 226.481 55.4006 226.481 13.5905C226.481 6.38794 220.602 0.529297 213.373 0.529297ZM217.442 213.366C217.442 215.608 215.615 217.432 213.373 217.432H13.5869C11.367 217.432 9.5619 215.608 9.5619 213.366V49.4861H217.442L217.442 213.366ZM217.442 40.4477H9.56194V13.5905C9.56194 11.3728 11.367 9.56771 13.5869 9.56771H213.373C215.615 9.56771 217.442 11.3727 217.442 13.5905L217.442 40.4477Z" fill="#202125"></path><path d="M81.2772 113.603H145.716C149.75 113.603 153.029 110.324 153.029 106.292V70.4098C153.029 66.3782 149.75 63.0991 145.716 63.0991H81.3081C77.2788 63.0991 73.9997 66.3782 73.9997 70.3987C73.9688 80.4125 73.9688 106.292 73.9688 106.292C73.9688 110.324 77.2479 113.603 81.2772 113.603ZM80.7785 70.4098C80.7785 70.1119 81.0124 69.878 81.3081 69.878H145.716C145.998 69.878 146.25 70.1273 146.25 70.4098V106.292C146.25 106.59 146.016 106.824 145.716 106.824H81.2772C80.9815 106.824 80.7476 106.59 80.7476 106.292C80.7476 106.292 80.7476 80.4258 80.7785 70.4098Z" fill="#202125"></path><path d="M47.3123 187.769H51.2048V192.162C51.2048 195.806 55.4325 197.604 57.966 195.591L68.6286 187.817C69.7098 187.018 70.3498 185.739 70.3498 184.393C70.3498 183.044 69.7098 181.764 68.6109 180.952L57.9925 173.185C57.251 172.635 56.3772 172.346 55.4636 172.346C53.1158 172.346 51.2048 174.264 51.2048 176.621V180.99H47.3123C45.7632 180.99 44.5054 179.732 44.5054 178.185V145.463C44.5054 143.916 45.7632 142.658 47.3123 142.658H76.6177L112.1 158.433C112.537 158.63 113.009 158.727 113.477 158.727C113.944 158.727 114.417 158.63 114.854 158.436L150.362 142.658H179.668C184.95 142.658 189.249 138.357 189.249 133.072V100.352C189.249 95.0671 184.95 90.7663 179.668 90.7663H175.775V86.3729C175.775 84.0228 173.868 82.1118 171.525 82.1118C170.585 82.1118 169.658 82.434 169.014 82.9459L158.36 90.7134C157.274 91.51 156.63 92.7942 156.63 94.1447C156.63 95.4952 157.274 96.7795 158.369 97.5827L168.987 105.35C171.789 107.427 175.775 105.416 175.775 101.914V97.5452H179.668C181.212 97.5452 182.47 98.8052 182.47 100.352V133.072C182.47 134.619 181.212 135.879 179.668 135.879H150.343L114.854 120.102C113.98 119.713 112.974 119.711 112.1 120.104L76.6421 135.879H47.3123C42.0251 135.879 37.7266 140.178 37.7266 145.463V178.185C37.7266 183.47 42.0251 187.769 47.3123 187.769ZM113.477 126.909L141.285 139.273L113.477 151.628L85.6904 139.273L113.477 126.909Z" fill="#202125"></path><path d="M149.632 164.921H77.3504C75.4791 164.921 73.9609 166.439 73.9609 168.31V200.448C73.9609 202.319 75.4791 203.837 77.3504 203.837H149.632C151.503 203.837 153.021 202.319 153.021 200.448V168.31C153.021 166.439 151.503 164.921 149.632 164.921ZM146.242 197.059H80.7398V171.7H146.242V197.059Z" fill="#202125"></path></svg>