<svg xmlns="http://www.w3.org/2000/svg" width="247" height="235" viewBox="0 0 247 235" fill="none"><path fill-rule="evenodd" clip-rule="evenodd" d="M2.75829 69.3008H207.955V179.76C207.955 190.005 199.572 198.374 189.328 198.374H21.3711C11.1264 198.374 2.75781 190.005 2.75781 179.76L2.75829 69.3008Z" fill="#FFA000"></path><path fill-rule="evenodd" clip-rule="evenodd" d="M207.954 69.3009L116.71 6.07907C110.464 1.75126 100.562 1.53176 94.7137 5.58603L2.75781 69.3009L94.7142 133.057C100.563 137.111 110.465 136.878 116.71 132.55L207.954 69.3009Z" fill="#FFB300"></path><path fill-rule="evenodd" clip-rule="evenodd" d="M200.382 194.717L115.37 124.237C110.207 119.95 100.811 119.785 95.9763 123.784L10.3203 194.717C13.4155 197.018 17.2368 198.374 21.3731 198.374H189.33C193.466 198.374 197.287 197.018 200.382 194.717Z" fill="#FB8C00"></path><path fill-rule="evenodd" clip-rule="evenodd" d="M176.648 38.0053C176.648 32.3214 171.991 27.6646 166.293 27.6646H147.872H62.8323H44.411C38.7136 27.6646 34.0703 32.3214 34.0703 38.0053V91.0094L89.3206 129.304L95.9771 123.784C100.812 119.785 110.208 119.949 115.371 124.236L121.438 129.263L176.648 91.009C176.648 73.3412 176.648 55.673 176.648 38.0053Z" fill="#D4E1F4"></path><path fill-rule="evenodd" clip-rule="evenodd" d="M187.921 173.722C184.553 176.949 184.427 182.338 187.655 185.705L229.752 229.697C232.979 233.064 238.368 233.191 241.735 229.963C245.103 226.736 245.229 221.347 242.002 217.98L199.905 173.989C196.678 170.621 191.289 170.495 187.921 173.722Z" fill="#526782"></path><path d="M152.288 136.896C144.598 144.272 140.609 154.078 140.392 163.97C140.175 173.849 143.702 183.799 151.045 191.494L151.06 191.479C151.161 191.58 151.248 191.696 151.335 191.797C158.677 199.347 168.376 203.252 178.147 203.469C188.019 203.686 197.964 200.142 205.654 192.81L205.639 192.795C205.741 192.694 205.856 192.593 205.957 192.506C213.502 185.158 217.405 175.469 217.622 165.691C217.839 155.784 214.283 145.805 206.911 138.096C199.54 130.402 189.74 126.41 179.867 126.193C169.966 125.976 159.993 129.52 152.288 136.896Z" fill="#3CD1FA"></path><path d="M67.3654 52.0729C67.3654 50.2108 68.8749 48.7018 70.7366 48.7018H140.958C142.82 48.7018 144.329 50.2113 144.329 52.0729C144.329 53.9346 142.82 55.4441 140.958 55.4441H70.7366C68.8749 55.4441 67.3654 53.9346 67.3654 52.0729ZM70.737 77.773H140.958C142.821 77.773 144.33 76.2635 144.33 74.4018C144.33 72.5397 142.82 71.0307 140.958 71.0307H70.737C68.8749 71.0307 67.3659 72.5401 67.3659 74.4018C67.3654 76.2635 68.8749 77.773 70.737 77.773ZM70.737 100.088H140.958C142.821 100.088 144.33 98.5789 144.33 96.7172C144.33 94.8555 142.82 93.346 140.958 93.346H70.737C68.8749 93.346 67.3659 94.8555 67.3659 96.7172C67.3659 98.5789 68.8749 100.088 70.737 100.088ZM246.757 223.543C246.687 226.648 245.418 229.537 243.184 231.678C241.014 233.757 238.176 234.893 235.167 234.893C235.077 234.893 234.987 234.892 234.896 234.89C231.791 234.82 228.902 233.551 226.761 231.316L199.425 202.751C193.076 206.141 186.069 207.84 179.065 207.84C167.68 207.841 156.316 203.384 147.845 194.532C139.868 186.189 135.614 175.243 135.867 163.709C135.985 158.322 137.092 153.113 139.074 148.273L113.68 127.223C109.827 124.033 102.242 123.807 98.6543 126.775L17.1395 194.278C18.7127 194.831 20.4021 195.136 22.162 195.136H139.757C141.619 195.136 143.128 196.645 143.128 198.507C143.128 200.368 141.618 201.878 139.757 201.878H22.162C10.0754 201.878 0.242188 192.045 0.242188 179.959V70.43C0.242188 70.3287 0.248459 70.2298 0.257143 70.1309C0.250871 70.0484 0.242188 69.9669 0.242188 69.8835C0.24267 68.7782 0.784912 67.7425 1.69379 67.1129L31.4428 46.499V38.6973C31.4428 31.1566 37.5783 25.0216 45.1185 25.0216H62.4423L93.3293 3.62088C100.351 -1.24724 111.666 -1.0316 119.089 4.11247L148.297 24.353C148.573 24.545 148.811 24.7717 149.011 25.0221H166.59C174.131 25.0221 180.266 31.1575 180.266 38.6978V46.5159L210.014 67.1124C210.923 67.742 211.466 68.7773 211.466 69.8835C211.466 69.9167 211.461 69.9495 211.46 69.9828C211.461 70.0229 211.466 70.0624 211.466 70.103V121.681C211.466 123.543 209.957 125.052 208.095 125.052C206.233 125.052 204.724 123.542 204.724 121.681V76.3233L178.914 94.213C178.842 94.2665 178.77 94.3172 178.694 94.3649L134.894 124.724C134.309 125.13 133.64 125.325 132.977 125.325C131.909 125.325 130.858 124.818 130.203 123.874C129.142 122.343 129.523 120.243 131.053 119.183L173.523 89.7457V38.6973C173.523 34.8741 170.413 31.7639 166.589 31.7639H45.119C41.2958 31.7639 38.1856 34.8736 38.1856 38.6973V89.7506L80.6966 119.223C82.2269 120.284 82.607 122.384 81.5462 123.914C80.8915 124.858 79.8408 125.365 78.7727 125.365C78.1099 125.365 77.4408 125.17 76.8546 124.764L32.9528 94.3268C32.9316 94.3128 32.9113 94.2983 32.8906 94.2839L6.98403 76.3233V179.959C6.98403 184.022 8.59195 187.714 11.2009 190.441L94.355 121.581C100.397 116.582 111.657 116.798 117.98 122.031L142.201 142.108C144.127 138.973 146.462 136.062 149.191 133.451C166.396 116.985 193.799 117.588 210.271 134.799C223.952 149.093 225.834 170.428 216.208 186.689L243.546 215.256C245.686 217.49 246.827 220.433 246.757 223.543ZM180.266 54.7161V85.0711L202.175 69.8854L180.266 54.7161ZM74.2809 25.0216H137.425L115.249 9.65405C110.157 6.12417 101.878 5.89888 97.1709 9.16198L74.2809 25.0216ZM9.5317 69.8849L31.4433 85.0759V54.7016L9.5317 69.8849ZM204.264 191.007C218.782 177.101 219.292 153.976 205.4 139.461C198.248 131.989 188.654 128.225 179.048 128.225C169.981 128.225 160.904 131.576 153.853 138.324C153.853 138.324 153.853 138.324 153.852 138.325C150.711 141.328 148.181 144.799 146.319 148.585C146.275 148.692 146.225 148.798 146.17 148.902C143.955 153.516 142.723 158.587 142.607 163.858C142.393 173.593 145.984 182.831 152.716 189.872C166.611 204.389 189.736 204.899 204.264 191.007ZM240.016 223.391C240.045 222.085 239.57 220.853 238.677 219.921L212.249 192.305C211.218 193.542 210.115 194.739 208.925 195.879C207.734 197.018 206.489 198.066 205.207 199.042L231.631 226.654C233.492 228.595 236.582 228.666 238.52 226.81C239.455 225.913 239.987 224.699 240.016 223.391Z" fill="black"></path></svg>