<svg xmlns="http://www.w3.org/2000/svg" width="254" height="220" viewBox="0 0 254 220" fill="none"><path fill-rule="evenodd" clip-rule="evenodd" d="M109.607 197.15L4.49219 197.245V171.325H109.512C145.507 171.325 174.682 142.145 174.682 106.155C174.682 78.22 157.102 54.4 132.407 45.13L129.782 58.885L96.6872 24.54L140.097 4.79004L137.312 19.395C174.022 31.15 200.597 65.55 200.597 106.16C200.597 156.42 159.857 197.16 109.597 197.16L109.607 197.15Z" fill="#DBFF78"></path><path fill-rule="evenodd" clip-rule="evenodd" d="M101.54 64.2002H117.49V72.2052C121.215 73.0752 124.71 74.5502 127.87 76.5102L133.535 70.8452L144.815 82.1252L139.15 87.7902C141.11 90.9502 142.58 94.4452 143.455 98.1702H151.46V114.12H143.455C142.585 117.845 141.11 121.34 139.15 124.5L144.815 130.165L133.535 141.445L127.87 135.78C124.71 137.74 121.215 139.21 117.49 140.085V148.09H101.54V140.085C97.8153 139.215 94.3203 137.74 91.1603 135.78L85.4953 141.445L74.2153 130.165L79.8803 124.5C77.9203 121.34 76.4503 117.845 75.5753 114.12H67.5703V98.1702H75.5753C76.4453 94.4452 77.9203 90.9502 79.8803 87.7902L74.2153 82.1252L85.4953 70.8452L91.1603 76.5102C94.3203 74.5502 97.8153 73.0802 101.54 72.2052V64.2002Z" fill="#85CAFF"></path><path d="M109.518 124.02C119.388 124.02 127.388 116.019 127.388 106.15C127.388 96.2805 119.388 88.2798 109.518 88.2798C99.6491 88.2798 91.6484 96.2805 91.6484 106.15C91.6484 116.019 99.6491 124.02 109.518 124.02Z" fill="white"></path><path fill-rule="evenodd" clip-rule="evenodd" d="M109.512 197.24C59.2019 197.24 18.4219 156.455 18.4219 106.145C18.4219 71.6847 37.5619 41.6947 65.7869 26.2197L84.7519 45.8497C61.0419 55.5997 44.3419 78.9197 44.3419 106.145C44.3419 142.14 73.5219 171.315 109.512 171.315H205.727V153.33L249.492 184.275L205.727 215.22V197.235H109.512V197.24Z" fill="#85CAFF"></path><path fill-rule="evenodd" clip-rule="evenodd" d="M93.82 27.3048C92.92 26.3698 92.53 25.0548 92.77 23.7798C93.015 22.5048 93.865 21.4248 95.045 20.8898L138.455 1.13482C139.815 0.514819 141.41 0.714818 142.585 1.62982C143.76 2.55482 144.32 4.06482 144.04 5.52482L141.905 16.7148C159.52 23.0798 174.69 34.3798 185.95 49.5598C198.16 66.0198 204.615 85.5898 204.615 106.145C204.615 126.7 197.92 146.995 185.26 163.65C184.475 164.685 183.28 165.23 182.075 165.23C181.23 165.23 180.38 164.965 179.655 164.415C177.895 163.075 177.555 160.57 178.89 158.81C190.485 143.565 196.615 125.35 196.615 106.15C196.615 68.1198 172.3 34.7848 136.105 23.1948C134.18 22.5798 133.02 20.6198 133.4 18.6348L134.735 11.6198L103.505 25.8298L127.315 50.5398L128.49 44.3748C128.715 43.2148 129.43 42.2148 130.465 41.6348C131.495 41.0598 132.725 40.9598 133.83 41.3798C146.87 46.2748 158.03 54.8998 166.09 66.3248C174.34 78.0248 178.7 91.7898 178.7 106.15C178.7 128.09 168.12 148.955 150.405 161.95C148.625 163.255 146.12 162.87 144.815 161.095C143.51 159.315 143.89 156.81 145.675 155.505C161.345 144.01 170.7 125.56 170.7 106.15C170.7 82.3998 156.7 60.6998 135.425 50.7248L133.73 59.6298C133.45 61.0948 132.37 62.2848 130.94 62.7098C129.505 63.1398 127.955 62.7298 126.915 61.6548L93.82 27.3098V27.3048ZM66.42 197.235C66.42 199.445 64.63 201.235 62.42 201.235H4.5C2.29 201.235 0.5 199.445 0.5 197.235V171.315C0.5 169.105 2.29 167.315 4.5 167.315H29.085C31.295 167.315 33.085 169.105 33.085 171.315C33.085 173.525 31.295 175.315 29.085 175.315H8.5V193.235H62.42C64.63 193.235 66.42 195.035 66.42 197.235ZM109.52 92.2698C101.87 92.2698 95.65 98.4948 95.65 106.145C95.65 113.795 101.87 120.015 109.52 120.015C117.17 120.015 123.395 113.795 123.395 106.145C123.395 98.4948 117.17 92.2698 109.52 92.2698ZM109.52 128.015C121.58 128.015 131.395 118.205 131.395 106.145C131.395 94.0848 121.58 84.2698 109.52 84.2698C97.46 84.2698 87.65 94.0848 87.65 106.145C87.65 118.205 97.46 128.015 109.52 128.015ZM93.275 79.9048C91.695 80.8898 89.65 80.6448 88.33 79.3348L85.495 76.4998L79.875 82.1198L82.71 84.9548C84.025 86.2698 84.26 88.3148 83.28 89.8898C81.515 92.7398 80.23 95.8248 79.47 99.0748C79.05 100.885 77.435 102.165 75.575 102.165H71.57V110.115H75.575C77.435 110.115 79.05 111.395 79.47 113.2C80.235 116.45 81.515 119.54 83.28 122.385C84.26 123.965 84.025 126.01 82.71 127.325L79.875 130.16L85.495 135.78L88.33 132.945C89.65 131.625 91.69 131.395 93.275 132.375C96.12 134.14 99.21 135.425 102.46 136.185C104.26 136.605 105.545 138.22 105.545 140.08V144.09H113.49V140.08C113.49 138.22 114.775 136.61 116.58 136.185C119.83 135.425 122.92 134.14 125.765 132.375C127.34 131.395 129.385 131.63 130.7 132.945L133.535 135.78L139.16 130.16L136.325 127.325C135.005 126.01 134.775 123.965 135.755 122.385C137.52 119.54 138.8 116.45 139.56 113.205C139.985 111.395 141.6 110.115 143.455 110.115H147.46V102.165H143.455C141.6 102.165 139.985 100.885 139.56 99.0748C138.8 95.8248 137.52 92.7348 135.755 89.8948C134.775 88.3148 135.01 86.2698 136.325 84.9548L139.16 82.1198L133.535 76.4998L130.7 79.3348C129.39 80.6448 127.34 80.8848 125.765 79.9048C122.915 78.1348 119.825 76.8548 116.58 76.0948C114.77 75.6698 113.49 74.0598 113.49 72.1998V68.1898H105.545V72.1998C105.545 74.0548 104.26 75.6698 102.46 76.0948C99.21 76.8548 96.12 78.1348 93.275 79.8998V79.9048ZM85.5 66.8448C84.44 66.8448 83.42 67.2648 82.67 68.0148L71.395 79.2948C70.64 80.0448 70.22 81.0598 70.22 82.1198C70.22 83.1798 70.64 84.1948 71.395 84.9448L74.91 88.4648C73.97 90.2998 73.18 92.2048 72.545 94.1648H67.58C65.37 94.1648 63.58 95.9548 63.58 98.1648V114.12C63.58 116.33 65.37 118.12 67.58 118.12H72.545C73.185 120.08 73.97 121.985 74.91 123.82L71.395 127.335C70.64 128.085 70.22 129.1 70.22 130.165C70.22 131.23 70.64 132.24 71.395 132.99L82.67 144.265C83.42 145.015 84.44 145.44 85.5 145.44C86.56 145.44 87.58 145.015 88.33 144.265L91.845 140.75C93.685 141.69 95.585 142.48 97.55 143.115V148.085C97.55 150.295 99.34 152.085 101.55 152.085H117.5C119.71 152.085 121.5 150.295 121.5 148.085V143.115C123.46 142.48 125.36 141.69 127.2 140.75L130.72 144.265C131.47 145.015 132.485 145.44 133.545 145.44C134.605 145.44 135.625 145.015 136.375 144.265L147.655 132.99C148.405 132.24 148.825 131.225 148.825 130.165C148.825 129.105 148.405 128.085 147.655 127.335L144.135 123.82C145.075 121.985 145.865 120.08 146.5 118.12H151.47C153.68 118.12 155.47 116.33 155.47 114.12V98.1648C155.47 95.9548 153.68 94.1648 151.47 94.1648H146.5C145.865 92.2048 145.075 90.2998 144.135 88.4648L147.655 84.9448C149.215 83.3848 149.215 80.8498 147.655 79.2898L136.375 68.0098C135.625 67.2548 134.61 66.8398 133.545 66.8398C132.48 66.8398 131.47 67.2598 130.72 68.0098L127.2 71.5248C125.365 70.5848 123.46 69.7948 121.5 69.1598V64.1898C121.5 61.9798 119.71 60.1898 117.5 60.1898H101.55C99.34 60.1898 97.55 61.9798 97.55 64.1898V69.1598C95.59 69.7948 93.685 70.5798 91.845 71.5248L88.33 68.0098C87.58 67.2548 86.56 66.8398 85.5 66.8398V66.8448ZM209.735 207.49L242.565 184.27L209.735 161.05V171.31C209.735 173.52 207.945 175.31 205.735 175.31H109.52C71.38 175.31 40.35 144.28 40.35 106.145C40.35 79.9198 54.935 56.3498 77.965 44.5748L65.075 31.2348C38.69 46.9098 22.43 75.3348 22.43 106.145C22.43 154.165 61.5 193.23 109.52 193.23H205.735C207.945 193.23 209.735 195.03 209.735 197.23V207.49ZM251.805 181.005L208.04 150.065C206.82 149.195 205.22 149.09 203.89 149.78C202.565 150.465 201.73 151.835 201.73 153.33V167.315H109.515C75.785 167.315 48.345 139.875 48.345 106.15C48.345 81.2398 63.235 59.0248 86.275 49.5498C87.5 49.0448 88.4 47.9698 88.67 46.6648C88.94 45.3698 88.55 44.0248 87.63 43.0648L68.665 23.4398C67.41 22.1448 65.445 21.8448 63.865 22.7098C33.375 39.4348 14.43 71.4048 14.43 106.15C14.43 158.58 57.085 201.24 109.52 201.24H201.735V215.225C201.735 216.725 202.57 218.095 203.895 218.78C204.475 219.08 205.105 219.225 205.735 219.225C206.55 219.225 207.355 218.98 208.045 218.495L251.81 187.545C252.875 186.795 253.5 185.58 253.5 184.28C253.5 182.98 252.875 181.765 251.81 181.015L251.805 181.005Z" fill="black"></path></svg>