<svg xmlns="http://www.w3.org/2000/svg" width="256" height="265" viewBox="0 0 256 265" fill="none"><path d="M196 12.4219H28C19.1634 12.4219 12 19.8372 12 28.9844V194.609C12 203.757 19.1634 211.172 28 211.172H196C204.837 211.172 212 203.757 212 194.609V28.9844C212 19.8372 204.837 12.4219 196 12.4219Z" fill="#EEEEEE"></path><path d="M212.003 28.9844V194.609C212.004 196.785 211.591 198.939 210.787 200.948C209.983 202.958 208.804 204.784 207.318 206.322C205.833 207.86 204.069 209.08 202.127 209.912C200.186 210.744 198.105 211.172 196.003 211.172H28.0034C24.4569 211.175 21.0102 209.956 18.2072 207.707C15.4042 205.457 13.4045 202.306 12.5234 198.75H176.003C178.105 198.751 180.186 198.323 182.127 197.49C184.069 196.658 185.833 195.438 187.318 193.9C188.804 192.362 189.983 190.536 190.787 188.526C191.591 186.517 192.004 184.363 192.003 182.188V16.5625C192.016 15.1641 191.841 13.7706 191.483 12.4219H196.003C198.105 12.4213 200.186 12.8493 202.127 13.6814C204.069 14.5135 205.833 15.7335 207.318 17.2716C208.804 18.8097 209.983 20.6357 210.787 22.6455C211.591 24.6552 212.004 26.8092 212.003 28.9844Z" fill="#E0E0E0"></path><path d="M212 28.9844V53.8281H12V28.9844C11.9994 26.8092 12.4129 24.6552 13.2168 22.6455C14.0206 20.6357 15.1991 18.8097 16.685 17.2716C18.1709 15.7335 19.9349 14.5135 21.8764 13.6814C23.8179 12.8493 25.8987 12.4213 28 12.4219H196C198.101 12.4213 200.182 12.8493 202.124 13.6814C204.065 14.5135 205.829 15.7335 207.315 17.2716C208.801 18.8097 209.979 20.6357 210.783 22.6455C211.587 24.6552 212.001 26.8092 212 28.9844Z" fill="#64B5F6"></path><path d="M244 195.946V184.991C244 184.163 243.76 183.355 243.312 182.669C242.864 181.984 242.228 181.453 241.486 181.146L230.017 176.397C229.068 173.035 227.775 169.787 226.162 166.708L231.016 154.984C231.331 154.223 231.419 153.382 231.268 152.57C231.117 151.757 230.734 151.01 230.168 150.425L222.684 142.678C222.119 142.093 221.397 141.696 220.612 141.54C219.827 141.383 219.015 141.474 218.28 141.8L206.953 146.827C203.979 145.156 200.841 143.819 197.593 142.836L193.006 130.964C192.709 130.196 192.197 129.537 191.535 129.072C190.873 128.608 190.092 128.36 189.292 128.359H178.708C177.909 128.359 177.128 128.607 176.466 129.071C175.804 129.535 175.291 130.194 174.994 130.962L170.407 142.834C167.159 143.817 164.021 145.154 161.047 146.824L149.72 141.799C148.985 141.473 148.173 141.383 147.388 141.539C146.603 141.696 145.881 142.092 145.316 142.677L137.832 150.424C137.267 151.009 136.884 151.756 136.733 152.569C136.581 153.382 136.669 154.223 136.984 154.983L141.84 166.709C140.227 169.788 138.934 173.036 137.985 176.398L126.516 181.147C125.774 181.454 125.137 181.984 124.689 182.669C124.24 183.354 124 184.163 124 184.991V195.947C124 196.774 124.24 197.583 124.688 198.268C125.136 198.953 125.772 199.484 126.514 199.791L137.983 204.54C138.932 207.902 140.224 211.15 141.838 214.229L136.984 225.954C136.669 226.715 136.581 227.555 136.732 228.368C136.883 229.181 137.266 229.928 137.832 230.513L145.316 238.26C145.881 238.845 146.603 239.241 147.388 239.398C148.173 239.554 148.985 239.464 149.72 239.138L161.047 234.113C164.021 235.783 167.159 237.12 170.407 238.103L174.994 249.975C175.291 250.743 175.804 251.402 176.466 251.866C177.128 252.33 177.909 252.578 178.708 252.578H189.292C190.091 252.578 190.872 252.33 191.534 251.866C192.196 251.402 192.709 250.744 193.006 249.975L197.593 238.104C200.841 237.121 203.979 235.783 206.953 234.113L218.28 239.138C219.015 239.464 219.827 239.555 220.612 239.398C221.397 239.242 222.119 238.845 222.684 238.26L230.168 230.513C230.733 229.928 231.116 229.181 231.267 228.368C231.418 227.556 231.331 226.715 231.016 225.954L226.162 214.229C227.775 211.15 229.067 207.902 230.017 204.54L241.485 199.791C242.228 199.484 242.864 198.953 243.312 198.268C243.76 197.583 244 196.774 244 195.946Z" fill="#FFB74D"></path><path d="M244.003 185.003V195.934C244.004 196.764 243.764 197.574 243.315 198.261C242.865 198.947 242.227 199.478 241.483 199.785L230.003 204.547C229.057 207.908 227.77 211.155 226.163 214.236L231.003 225.954C231.329 226.711 231.424 227.553 231.274 228.368C231.123 229.182 230.736 229.929 230.163 230.509L222.683 238.252C222.123 238.844 221.402 239.246 220.615 239.401C219.828 239.556 219.015 239.459 218.283 239.121L206.963 234.111C203.987 235.774 200.85 237.106 197.603 238.086L193.003 249.97C192.707 250.74 192.194 251.401 191.53 251.866C190.867 252.331 190.084 252.579 189.283 252.578H178.723C177.922 252.579 177.139 252.331 176.476 251.866C175.813 251.401 175.3 250.74 175.003 249.97L171.203 240.115C171.468 240.149 171.736 240.163 172.003 240.156C184.734 240.156 196.943 234.921 205.944 225.603C214.946 216.285 220.003 203.647 220.003 190.469C220.003 177.291 214.946 164.653 205.944 155.334C196.943 146.016 184.734 140.781 172.003 140.781C171.736 140.774 171.468 140.788 171.203 140.823L175.003 130.968C175.3 130.198 175.813 129.537 176.476 129.072C177.139 128.607 177.922 128.359 178.723 128.359H189.283C190.084 128.359 190.867 128.607 191.53 129.072C192.194 129.537 192.707 130.198 193.003 130.968L197.603 142.852C200.85 143.831 203.987 145.164 206.963 146.827L218.283 141.816C219.015 141.479 219.828 141.381 220.615 141.537C221.402 141.692 222.123 142.093 222.683 142.686L230.163 150.429C230.736 151.008 231.123 151.756 231.274 152.57C231.424 153.384 231.329 154.226 231.003 154.984L226.163 166.702C227.77 169.782 229.057 173.03 230.003 176.391L241.483 181.152C242.227 181.459 242.865 181.99 243.315 182.677C243.764 183.363 244.004 184.174 244.003 185.003Z" fill="#FFA726"></path><path d="M184 219.453C199.464 219.453 212 206.476 212 190.469C212 174.461 199.464 161.484 184 161.484C168.536 161.484 156 174.461 156 190.469C156 206.476 168.536 219.453 184 219.453Z" fill="#EEEEEE"></path><path d="M167.997 190.469C167.999 183.863 170.181 177.455 174.183 172.309C178.184 167.162 183.763 163.584 189.997 162.169C185.905 161.232 181.663 161.259 177.582 162.246C173.502 163.232 169.688 165.155 166.421 167.871C163.153 170.587 160.517 174.027 158.705 177.939C156.894 181.85 155.953 186.132 155.953 190.47C155.953 194.807 156.894 199.09 158.705 203.001C160.517 206.912 163.153 210.353 166.421 213.069C169.688 215.785 173.502 217.707 177.582 218.694C181.663 219.681 185.905 219.707 189.997 218.771C183.763 217.355 178.183 213.777 174.182 208.63C170.181 203.483 167.999 197.075 167.997 190.469Z" fill="#E0E0E0"></path><path d="M211.997 28.9844V53.8281H191.997V16.5625C192.009 15.1641 191.834 13.7706 191.477 12.4219H195.997C198.098 12.4213 200.179 12.8493 202.12 13.6814C204.062 14.5135 205.826 15.7335 207.312 17.2716C208.797 18.8097 209.976 20.6357 210.78 22.6455C211.584 24.6552 211.997 26.8092 211.997 28.9844Z" fill="#42A5F5"></path><path d="M124 33.125C124 32.0268 124.421 30.9737 125.172 30.1971C125.922 29.4206 126.939 28.9844 128 28.9844H188C189.061 28.9844 190.078 29.4206 190.828 30.1971C191.579 30.9737 192 32.0268 192 33.125C192 34.2232 191.579 35.2763 190.828 36.0529C190.078 36.8294 189.061 37.2656 188 37.2656H128C126.939 37.2656 125.922 36.8294 125.172 36.0529C124.421 35.2763 124 34.2232 124 33.125ZM36 37.2656C36.7911 37.2656 37.5645 37.0228 38.2223 36.5678C38.8801 36.1128 39.3928 35.4662 39.6955 34.7095C39.9983 33.9529 40.0775 33.1204 39.9231 32.3172C39.7688 31.514 39.3878 30.7762 38.8284 30.1971C38.269 29.6181 37.5563 29.2237 36.7804 29.0639C36.0044 28.9042 35.2002 28.9862 34.4693 29.2996C33.7384 29.613 33.1136 30.1437 32.6741 30.8246C32.2346 31.5055 32 32.3061 32 33.125C32 34.2232 32.4214 35.2763 33.1716 36.0529C33.9217 36.8294 34.9391 37.2656 36 37.2656ZM56 37.2656C56.7911 37.2656 57.5645 37.0228 58.2223 36.5678C58.8801 36.1128 59.3928 35.4662 59.6955 34.7095C59.9983 33.9529 60.0775 33.1204 59.9231 32.3172C59.7688 31.514 59.3878 30.7762 58.8284 30.1971C58.269 29.6181 57.5563 29.2237 56.7804 29.0639C56.0044 28.9042 55.2002 28.9862 54.4693 29.2996C53.7384 29.613 53.1136 30.1437 52.6741 30.8246C52.2346 31.5055 52 32.3061 52 33.125C52 34.2232 52.4214 35.2763 53.1716 36.0529C53.9217 36.8294 54.9391 37.2656 56 37.2656ZM76 37.2656C76.7911 37.2656 77.5645 37.0228 78.2223 36.5678C78.8801 36.1128 79.3928 35.4662 79.6955 34.7095C79.9983 33.9529 80.0775 33.1204 79.9231 32.3172C79.7688 31.514 79.3878 30.7762 78.8284 30.1971C78.269 29.6181 77.5563 29.2237 76.7804 29.0639C76.0044 28.9042 75.2002 28.9862 74.4693 29.2996C73.7384 29.613 73.1136 30.1437 72.6741 30.8246C72.2346 31.5055 72 32.3061 72 33.125C72 34.2232 72.4214 35.2763 73.1716 36.0529C73.9217 36.8294 74.9391 37.2656 76 37.2656ZM32.254 110.343L44.254 77.2181C44.5396 76.4284 45.0514 75.7478 45.7208 75.2674C46.3902 74.7869 47.1854 74.5295 48 74.5295C48.8146 74.5295 49.6098 74.7869 50.2792 75.2674C50.9486 75.7478 51.4603 76.4284 51.746 77.2181L63.746 110.343C64.1185 111.372 64.081 112.511 63.6419 113.511C63.2027 114.511 62.3979 115.289 61.4044 115.675C60.4109 116.06 59.3101 116.021 58.3442 115.567C57.3783 115.112 56.6265 114.279 56.254 113.251L54.2272 107.656H41.7728L39.746 113.251C39.5616 113.76 39.2821 114.227 38.9234 114.624C38.5648 115.021 38.134 115.342 37.6558 115.567C37.1775 115.792 36.6611 115.917 36.136 115.936C35.611 115.954 35.0875 115.865 34.5956 115.675C34.1037 115.484 33.6529 115.194 33.269 114.823C32.8851 114.452 32.5756 114.006 32.3581 113.511C32.1407 113.016 32.0196 112.481 32.0017 111.938C31.9838 111.394 32.0696 110.852 32.254 110.343ZM44.7724 99.375H51.2276L48 90.4648L44.7724 99.375ZM76 115.938C74.9391 115.938 73.9217 115.501 73.1716 114.725C72.4214 113.948 72 112.895 72 111.797V78.6719C72 77.5737 72.4214 76.5205 73.1716 75.744C73.9217 74.9675 74.9391 74.5312 76 74.5312H86C89.713 74.5312 93.274 76.0581 95.8995 78.7759C98.525 81.4937 100 85.1799 100 89.0234C100 92.867 98.525 96.5532 95.8995 99.271C93.274 101.989 89.713 103.516 86 103.516H80V111.797C80 112.895 79.5786 113.948 78.8284 114.725C78.0783 115.501 77.0609 115.938 76 115.938ZM80 95.2344H86C87.5913 95.2344 89.1174 94.58 90.2426 93.4152C91.3679 92.2505 92 90.6707 92 89.0234C92 87.3762 91.3679 85.7964 90.2426 84.6316C89.1174 83.4669 87.5913 82.8125 86 82.8125H80V95.2344ZM116 111.797V78.6719C116 77.5737 115.579 76.5205 114.828 75.744C114.078 74.9675 113.061 74.5312 112 74.5312C110.939 74.5312 109.922 74.9675 109.172 75.744C108.421 76.5205 108 77.5737 108 78.6719V111.797C108 112.895 108.421 113.948 109.172 114.725C109.922 115.501 110.939 115.938 112 115.938C113.061 115.938 114.078 115.501 114.828 114.725C115.579 113.948 116 112.895 116 111.797ZM119.996 211.172C119.996 212.27 119.575 213.323 118.824 214.1C118.074 214.876 117.057 215.312 115.996 215.312H28C22.6976 215.306 17.6141 213.123 13.8648 209.242C10.1154 205.36 8.00625 200.098 8 194.609V28.9844C8.00625 23.4955 10.1154 18.2334 13.8648 14.3522C17.6141 10.471 22.6976 8.28772 28 8.28125H196C201.302 8.28772 206.386 10.471 210.135 14.3522C213.885 18.2334 215.994 23.4955 216 28.9844V128.359C216 129.458 215.579 130.511 214.828 131.287C214.078 132.064 213.061 132.5 212 132.5C210.939 132.5 209.922 132.064 209.172 131.287C208.421 130.511 208 129.458 208 128.359V57.9688H16V194.609C16.0035 197.903 17.2689 201.06 19.5186 203.389C21.7683 205.718 24.8185 207.028 28 207.031H115.996C117.057 207.031 118.074 207.467 118.824 208.244C119.575 209.021 119.996 210.074 119.996 211.172ZM16 28.9844V49.6875H208V28.9844C207.996 25.691 206.731 22.5335 204.481 20.2048C202.232 17.876 199.182 16.5661 196 16.5625H28C24.8185 16.5661 21.7683 17.876 19.5186 20.2048C17.2689 22.5335 16.0035 25.691 16 28.9844ZM248 184.99V195.946C248.005 197.603 247.527 199.222 246.63 200.594C245.732 201.965 244.457 203.026 242.969 203.636L233.262 207.655C232.518 209.963 231.624 212.215 230.586 214.398L234.692 224.325C235.327 225.844 235.505 227.527 235.203 229.153C234.9 230.779 234.131 232.273 232.996 233.439L225.512 241.187C224.383 242.36 222.94 243.154 221.37 243.467C219.8 243.78 218.176 243.597 216.707 242.942L207.117 238.69C205.008 239.766 202.831 240.693 200.602 241.465L196.72 251.515C196.131 253.055 195.107 254.375 193.782 255.303C192.457 256.232 190.893 256.725 189.293 256.719H178.707C177.107 256.725 175.542 256.231 174.217 255.302C172.891 254.373 171.868 253.052 171.28 251.511L167.4 241.464C165.17 240.693 162.993 239.766 160.884 238.69L151.294 242.942C149.826 243.598 148.201 243.781 146.631 243.468C145.061 243.155 143.618 242.36 142.49 241.187L135.004 233.44C133.868 232.273 133.099 230.778 132.797 229.152C132.494 227.525 132.673 225.842 133.308 224.322L137.414 214.399C136.376 212.216 135.482 209.964 134.738 207.656L125.031 203.636C123.543 203.026 122.267 201.966 121.37 200.594C120.472 199.223 119.995 197.603 120 195.946V184.992C119.995 183.335 120.473 181.715 121.37 180.344C122.268 178.972 123.543 177.912 125.031 177.302L134.738 173.282C135.483 170.974 136.378 168.722 137.418 166.54L133.309 156.615C132.674 155.095 132.495 153.413 132.797 151.787C133.099 150.161 133.866 148.666 135 147.499L142.489 139.751C143.616 138.576 145.059 137.78 146.629 137.466C148.2 137.153 149.825 137.338 151.293 137.996L160.883 142.248C162.992 141.172 165.169 140.245 167.399 139.474L171.282 129.423C171.87 127.883 172.894 126.563 174.218 125.635C175.543 124.706 177.107 124.213 178.707 124.219H189.293C190.893 124.212 192.458 124.706 193.783 125.635C195.109 126.565 196.132 127.886 196.72 129.427L200.603 139.473C202.833 140.245 205.009 141.172 207.118 142.247L216.708 137.995C218.176 137.338 219.802 137.154 221.372 137.467C222.943 137.78 224.386 138.576 225.513 139.751L232.997 147.498C234.133 148.665 234.902 150.16 235.204 151.786C235.507 153.413 235.329 155.096 234.693 156.616L230.583 166.539C231.623 168.721 232.519 170.974 233.263 173.282L242.97 177.303C244.458 177.913 245.733 178.972 246.631 180.344C247.528 181.715 248.005 183.334 248 184.99ZM240 184.99L228.531 180.241C227.969 180.009 227.465 179.648 227.058 179.184C226.651 178.721 226.35 178.168 226.18 177.567C225.311 174.488 224.129 171.514 222.652 168.695C222.361 168.144 222.195 167.532 222.166 166.905C222.137 166.278 222.246 165.653 222.484 165.076L227.34 153.349L219.856 145.605L208.527 150.629C207.971 150.876 207.368 150.989 206.764 150.959C206.16 150.93 205.57 150.759 205.039 150.46C202.312 148.932 199.437 147.706 196.461 146.804C195.881 146.627 195.347 146.316 194.9 145.895C194.453 145.474 194.104 144.953 193.879 144.372L189.289 132.5H178.707L174.12 144.372C173.895 144.953 173.546 145.474 173.099 145.895C172.652 146.316 172.118 146.627 171.538 146.804C168.562 147.706 165.687 148.932 162.96 150.46C162.428 150.759 161.839 150.93 161.234 150.959C160.63 150.989 160.028 150.876 159.472 150.629L148.144 145.605L140.66 153.351L145.516 165.077C145.754 165.654 145.863 166.28 145.834 166.907C145.805 167.534 145.639 168.146 145.348 168.696C143.871 171.515 142.689 174.489 141.82 177.568C141.65 178.169 141.349 178.722 140.942 179.185C140.535 179.649 140.031 180.01 139.469 180.243L128 184.99V195.946L139.469 200.696C140.031 200.928 140.535 201.29 140.942 201.753C141.349 202.217 141.65 202.77 141.82 203.371C142.688 206.451 143.871 209.426 145.348 212.247C145.637 212.797 145.802 213.408 145.831 214.034C145.859 214.659 145.75 215.284 145.512 215.859L140.66 227.585L148.144 235.332L159.473 230.308C160.029 230.061 160.631 229.948 161.236 229.977C161.84 230.006 162.43 230.178 162.961 230.478C165.688 232.006 168.563 233.231 171.539 234.133C172.119 234.31 172.653 234.621 173.1 235.042C173.547 235.464 173.896 235.984 174.121 236.566L178.711 248.438H189.293L193.88 236.566C194.105 235.984 194.454 235.464 194.901 235.042C195.348 234.621 195.882 234.31 196.462 234.133C199.438 233.231 202.313 232.006 205.04 230.478C205.571 230.178 206.161 230.006 206.765 229.977C207.37 229.947 207.973 230.061 208.528 230.308L219.857 235.332L227.341 227.585L222.49 215.858C222.251 215.282 222.142 214.658 222.17 214.032C222.199 213.407 222.364 212.796 222.654 212.246C224.13 209.425 225.313 206.45 226.181 203.37C226.351 202.769 226.652 202.215 227.059 201.752C227.466 201.289 227.97 200.927 228.532 200.695L240 195.946V184.99ZM216 190.469C216 197.02 214.123 203.425 210.607 208.872C207.091 214.319 202.093 218.565 196.246 221.072C190.399 223.579 183.964 224.235 177.757 222.957C171.55 221.679 165.848 218.524 161.373 213.892C156.897 209.259 153.85 203.357 152.615 196.931C151.38 190.505 152.014 183.845 154.436 177.792C156.858 171.74 160.959 166.566 166.222 162.926C171.484 159.286 177.671 157.344 184 157.344C192.484 157.354 200.618 160.847 206.617 167.057C212.616 173.267 215.99 181.687 216 190.469ZM208 190.469C208 185.555 206.592 180.752 203.955 176.666C201.318 172.581 197.57 169.396 193.184 167.516C188.799 165.636 183.973 165.144 179.318 166.102C174.662 167.061 170.386 169.427 167.029 172.902C163.673 176.376 161.387 180.803 160.461 185.622C159.535 190.441 160.01 195.436 161.827 199.976C163.643 204.516 166.72 208.396 170.666 211.126C174.613 213.855 179.253 215.312 184 215.312C190.363 215.305 196.463 212.685 200.963 208.028C205.462 203.37 207.993 197.056 208 190.469ZM36 140.781H84C85.0609 140.781 86.0783 140.345 86.8284 139.568C87.5786 138.792 88 137.739 88 136.641C88 135.542 87.5786 134.489 86.8284 133.713C86.0783 132.936 85.0609 132.5 84 132.5H36C34.9391 132.5 33.9217 132.936 33.1716 133.713C32.4214 134.489 32 135.542 32 136.641C32 137.739 32.4214 138.792 33.1716 139.568C33.9217 140.345 34.9391 140.781 36 140.781ZM116 161.484C116 160.386 115.579 159.333 114.828 158.557C114.078 157.78 113.061 157.344 112 157.344H36C34.9391 157.344 33.9217 157.78 33.1716 158.557C32.4214 159.333 32 160.386 32 161.484C32 162.583 32.4214 163.636 33.1716 164.412C33.9217 165.189 34.9391 165.625 36 165.625H112C113.061 165.625 114.078 165.189 114.828 164.412C115.579 163.636 116 162.583 116 161.484ZM36 182.188C34.9391 182.188 33.9217 182.624 33.1716 183.4C32.4214 184.177 32 185.23 32 186.328C32 187.426 32.4214 188.479 33.1716 189.256C33.9217 190.033 34.9391 190.469 36 190.469H84C85.0609 190.469 86.0783 190.033 86.8284 189.256C87.5786 188.479 88 187.426 88 186.328C88 185.23 87.5786 184.177 86.8284 183.4C86.0783 182.624 85.0609 182.188 84 182.188H36ZM128 136.641C128 135.542 127.579 134.489 126.828 133.713C126.078 132.936 125.061 132.5 124 132.5H100C98.9391 132.5 97.9217 132.936 97.1716 133.713C96.4214 134.489 96 135.542 96 136.641C96 137.739 96.4214 138.792 97.1716 139.568C97.9217 140.345 98.9391 140.781 100 140.781H124C125.061 140.781 126.078 140.345 126.828 139.568C127.579 138.792 128 137.739 128 136.641Z" fill="black"></path></svg>