<svg xmlns="http://www.w3.org/2000/svg" width="243" height="240" viewBox="0 0 243 240" fill="none"><path d="M209.281 135.469H126.156V125.328H117.844V135.469H34.7188C33.6164 135.469 32.5593 135.907 31.7798 136.686C31.0004 137.466 30.5625 138.523 30.5625 139.625V206.125H38.875V143.781H117.844V206.125H126.156V143.781H205.125V206.125H213.438V139.625C213.438 138.523 213 137.466 212.22 136.686C211.441 135.907 210.384 135.469 209.281 135.469Z" fill="#263238"></path><path d="M121.999 0.141113C109.209 0.141113 96.7051 3.93401 86.07 11.0402C75.4349 18.1464 67.1458 28.2466 62.251 40.0637C57.3561 51.8809 56.0754 64.8841 58.5708 77.4291C61.0661 89.9741 67.2255 101.497 76.2699 110.542C85.3144 119.586 96.8377 125.746 109.383 128.241C121.928 130.736 134.931 129.456 146.748 124.561C158.565 119.666 168.665 111.377 175.772 100.742C182.878 90.1066 186.671 77.6031 186.671 64.8124C186.651 47.6666 179.831 31.2287 167.707 19.1048C155.583 6.98083 139.145 0.160913 121.999 0.141113Z" fill="#FFD600"></path><path d="M122.001 112.165C148.152 112.165 169.353 90.9645 169.353 64.8126C169.353 38.6607 148.152 17.4604 122.001 17.4604C95.8487 17.4604 74.6484 38.6607 74.6484 64.8126C74.6484 90.9645 95.8487 112.165 122.001 112.165Z" fill="#FFFDE7"></path><path d="M122.418 27.9048C124.405 30.8116 125.685 34.1417 126.159 37.6304C126.364 40.8956 126.084 44.1731 125.328 47.356C124.984 50.5979 124.568 53.8398 124.081 57.0817C123.52 60.3235 123.083 63.5654 122.418 66.8073H121.587C120.922 63.5654 120.486 60.3235 119.924 57.0817C119.44 53.8398 119.024 50.5979 118.678 47.356C117.921 44.1731 117.641 40.8956 117.846 37.6304C118.318 34.1412 119.599 30.8107 121.587 27.9048H122.418Z" fill="#455A64"></path><path d="M123.828 67.5557C125.989 66.8907 128.151 66.4543 130.312 65.8932C132.473 65.4055 134.634 64.9899 136.796 64.6463C138.87 63.8961 141.083 63.6122 143.279 63.815C145.769 64.3784 148.029 65.6825 149.763 67.5557V68.3869C148.03 70.2615 145.77 71.5659 143.279 72.1275C141.083 72.3303 138.87 72.0465 136.796 71.2963C134.634 70.9527 132.473 70.5371 130.312 70.0494C128.151 69.4925 125.989 69.0519 123.828 68.3869V67.5557Z" fill="#455A64"></path><path d="M63.8125 204.047H5.625C4.47728 204.047 3.54688 204.977 3.54688 206.125V235.219C3.54688 236.366 4.47728 237.297 5.625 237.297H63.8125C64.9602 237.297 65.8906 236.366 65.8906 235.219V206.125C65.8906 204.977 64.9602 204.047 63.8125 204.047Z" fill="#FF3D00"></path><path d="M151.094 204.047H92.9062C91.7585 204.047 90.8281 204.977 90.8281 206.125V235.219C90.8281 236.366 91.7585 237.297 92.9062 237.297H151.094C152.241 237.297 153.172 236.366 153.172 235.219V206.125C153.172 204.977 152.241 204.047 151.094 204.047Z" fill="#FF3D00"></path><path d="M238.375 204.047H180.188C179.04 204.047 178.109 204.977 178.109 206.125V235.219C178.109 236.366 179.04 237.297 180.188 237.297H238.375C239.523 237.297 240.453 236.366 240.453 235.219V206.125C240.453 204.977 239.523 204.047 238.375 204.047Z" fill="#FF3D00"></path><path d="M121.997 61.5293C120.723 61.5293 119.477 61.9071 118.418 62.615C117.358 63.3229 116.533 64.329 116.045 65.5062C115.557 66.6833 115.43 67.9786 115.678 69.2283C115.927 70.478 116.541 71.6258 117.442 72.5268C118.343 73.4278 119.49 74.0413 120.74 74.2899C121.99 74.5385 123.285 74.4109 124.462 73.9233C125.639 73.4357 126.645 72.61 127.353 71.5506C128.061 70.4912 128.439 69.2456 128.439 67.9715C128.437 66.2636 127.757 64.6263 126.55 63.4186C125.342 62.2109 123.705 61.5315 121.997 61.5293Z" fill="#546E7A"></path><path d="M170.915 64.8125C170.915 55.0359 168.017 45.4787 162.586 37.3494C157.155 29.2201 149.436 22.8838 140.403 19.1419C131.371 15.4 121.432 14.4205 111.844 16.3274C102.255 18.2342 93.4467 22.9416 86.5334 29.8544C79.62 36.7672 74.9118 45.5748 73.0042 55.1635C71.0966 64.7521 72.0752 74.6911 75.8164 83.7235C79.5575 92.756 85.8931 100.476 94.022 105.908C102.151 111.339 111.708 114.239 121.484 114.239C134.589 114.224 147.153 109.012 156.42 99.7465C165.686 90.4805 170.899 77.9171 170.915 64.8125ZM80.3666 64.8125C80.3658 56.68 82.7766 48.7299 87.2942 41.9676C91.8117 35.2052 98.2332 29.9344 105.746 26.8217C113.26 23.7089 121.527 22.8941 129.504 24.4801C137.48 26.0662 144.807 29.982 150.558 35.7322C156.308 41.4825 160.225 48.809 161.812 56.7851C163.399 64.7613 162.585 73.029 159.473 80.5425C156.361 88.056 151.09 94.478 144.329 98.9963C137.567 103.515 129.617 105.926 121.484 105.926C110.582 105.918 100.129 101.584 92.4197 93.876C84.7104 86.1675 80.3754 75.7145 80.3666 64.8125ZM128.716 69.8C129.078 69.8873 129.435 69.9704 129.797 70.066C131.958 70.5481 134.119 70.9638 136.281 71.3129C138.355 72.0631 140.568 72.3469 142.764 72.1441C145.253 71.5791 147.513 70.2752 149.248 68.4035V67.5723C147.515 65.6977 145.255 64.3933 142.764 63.8316C140.568 63.6288 138.355 63.9127 136.281 64.6629C134.119 65.0065 131.958 65.4221 129.797 65.9098L128.716 66.1716C128.376 64.8064 127.658 63.5647 126.644 62.5891C125.63 61.6135 124.362 60.9436 122.985 60.6563C123.172 59.4717 123.359 58.283 123.562 57.0985C124.047 53.8566 124.463 50.6148 124.809 47.3729C125.566 44.1899 125.846 40.9124 125.641 37.6473C125.167 34.1586 123.886 30.8285 121.9 27.9216H121.069C119.082 30.8285 117.802 34.1586 117.328 37.6473C117.123 40.9124 117.403 44.1899 118.159 47.3729C118.506 50.6148 118.921 53.8566 119.406 57.0985C119.61 58.283 119.797 59.4717 119.988 60.6563C118.675 60.9192 117.456 61.5297 116.46 62.4242C115.463 63.3188 114.725 64.4644 114.322 65.7416C113.919 67.0188 113.867 68.3807 114.17 69.6852C114.473 70.9896 115.12 72.1888 116.045 73.1576C116.97 74.1263 118.138 74.829 119.427 75.1925C120.716 75.5559 122.078 75.5666 123.373 75.2236C124.668 74.8806 125.846 74.1964 126.786 73.2424C127.726 72.2883 128.393 71.0995 128.716 69.8ZM120.653 67.9879C120.653 67.7674 120.741 67.556 120.897 67.4001C121.052 67.2442 121.264 67.1566 121.484 67.1566C121.705 67.1566 121.916 67.2442 122.072 67.4001C122.228 67.556 122.316 67.7674 122.316 67.9879C122.316 68.8856 120.653 68.8856 120.653 67.9713V67.9879ZM237.859 201.969H212.922V139.625C212.922 138.523 212.484 137.466 211.705 136.686C210.925 135.907 209.868 135.469 208.766 135.469H125.641V129.272C142.398 128.193 158.078 120.638 169.366 108.206C180.653 95.7734 186.662 79.4382 186.122 62.655C185.582 45.8719 178.536 29.9567 166.473 18.2755C154.41 6.59426 138.276 0.0629883 121.484 0.0629883C104.693 0.0629883 88.559 6.59426 76.496 18.2755C64.433 29.9567 57.3864 45.8719 56.8466 62.655C56.3067 79.4382 62.3159 95.7734 73.6032 108.206C84.8906 120.638 100.571 128.193 117.328 129.272V135.469H34.2031C33.1008 135.469 32.0437 135.907 31.2642 136.686C30.4848 137.466 30.0469 138.523 30.0469 139.625V201.969H5.10938C4.00707 201.969 2.94991 202.407 2.17046 203.186C1.39101 203.966 0.953125 205.023 0.953125 206.125V235.219C0.953125 236.321 1.39101 237.378 2.17046 238.158C2.94991 238.937 4.00707 239.375 5.10938 239.375H63.2969C64.3992 239.375 65.4563 238.937 66.2358 238.158C67.0152 237.378 67.4531 236.321 67.4531 235.219V206.125C67.4531 205.023 67.0152 203.966 66.2358 203.186C65.4563 202.407 64.3992 201.969 63.2969 201.969H38.3594V143.781H117.328V201.969H92.3906C91.2883 201.969 90.2312 202.407 89.4517 203.186C88.6723 203.966 88.2344 205.023 88.2344 206.125V235.219C88.2344 236.321 88.6723 237.378 89.4517 238.158C90.2312 238.937 91.2883 239.375 92.3906 239.375H150.578C151.68 239.375 152.738 238.937 153.517 238.158C154.296 237.378 154.734 236.321 154.734 235.219V206.125C154.734 205.023 154.296 203.966 153.517 203.186C152.738 202.407 151.68 201.969 150.578 201.969H125.641V143.781H204.609V201.969H179.672C178.57 201.969 177.512 202.407 176.733 203.186C175.954 203.966 175.516 205.023 175.516 206.125V235.219C175.516 236.321 175.954 237.378 176.733 238.158C177.512 238.937 178.57 239.375 179.672 239.375H237.859C238.962 239.375 240.019 238.937 240.798 238.158C241.578 237.378 242.016 236.321 242.016 235.219V206.125C242.016 205.023 241.578 203.966 240.798 203.186C240.019 202.407 238.962 201.969 237.859 201.969ZM65.1256 64.8125C65.1256 53.6658 68.431 42.7694 74.6238 33.5013C80.8166 24.2331 89.6186 17.0095 99.9168 12.7438C110.215 8.47816 121.547 7.36207 132.479 9.53668C143.412 11.7113 153.454 17.0789 161.336 24.9609C169.218 32.8428 174.586 42.8849 176.76 53.8175C178.935 64.75 177.819 76.0819 173.553 86.3801C169.287 96.6783 162.064 105.48 152.796 111.673C143.527 117.866 132.631 121.171 121.484 121.171C106.542 121.155 92.2167 115.212 81.6509 104.646C71.0852 94.0802 65.1421 79.7547 65.1256 64.8125ZM59.1406 231.063H9.26562V210.281H59.1406V231.063ZM146.422 231.063H96.5469V210.281H146.422V231.063ZM233.703 231.063H183.828V210.281H233.703V231.063Z" fill="black"></path></svg>